<svg width="100%" height="100%" id="svg" viewBox="0 0 1440 390" xmlns="http://www.w3.org/2000/svg" class="transition duration-300 ease-in-out delay-150"><path d="M 0,400 L 0,150 C 51.046354027401236,149.42350443317827 102.09270805480247,148.84700886635653 144,138 C 185.90729194519753,127.15299113364345 218.67552180819132,106.03546896775211 258,100 C 297.3244781918087,93.96453103224789 343.2052047124322,103.01111526263506 387,120 C 430.7947952875678,136.98888473736494 472.5036593420799,161.9200699817077 514,157 C 555.4963406579201,152.0799300182923 596.7801579192483,117.30860481053406 637,127 C 677.2198420807517,136.69139518946594 716.3757089809268,190.84551077615595 765,217 C 813.6242910190732,243.15448922384405 871.7170061570445,241.30935208484223 919,209 C 966.2829938429555,176.69064791515777 1002.7562663908952,113.91708088447527 1049,114 C 1095.2437336091048,114.08291911552473 1151.2579282793743,177.02232437725667 1189,199 C 1226.7420717206257,220.97767562274333 1246.2120204916073,201.9936216064981 1285,187 C 1323.7879795083927,172.0063783935019 1381.8939897541964,161.00318919675095 1440,150 L 1440,400 L 0,400 Z" stroke="none" stroke-width="0" fill="#629a7f" fill-opacity="1" class="transition-all duration-300 ease-in-out delay-150 path-0" transform="rotate(-180 720 200)"></path></svg>